<svg xmlns="http://www.w3.org/2000/svg" width="101" height="101" fill="none"><path fill="#EEE" d="M57.61 49.748c0-7.423-.767-13.424-2.302-18.004-1.483-4.58-3.521-8.074-6.116-10.484-2.594-2.459-5.532-4.122-8.815-4.99-3.283-.867-6.698-1.301-10.245-1.301h-8.1V85.54h8.18c3.706 0 7.2-.53 10.483-1.59 3.335-1.061 6.274-2.893 8.815-5.496 2.541-2.651 4.527-6.29 5.956-10.918 1.43-4.676 2.145-10.605 2.145-17.788zm22.714 0c0 8.195-.98 15.209-2.938 21.042-1.906 5.832-4.553 10.677-7.942 14.533-3.389 3.809-7.306 6.797-11.754 8.966-4.394 2.17-9.106 3.712-14.136 4.628a88.152 88.152 0 0 1-15.17 1.302H.272v-100H26.48c6.83 0 13.448.674 19.854 2.024 6.407 1.302 12.151 3.712 17.234 7.23 5.136 3.52 9.213 8.533 12.23 15.04 3.018 6.46 4.527 14.872 4.527 25.235z"/><path fill="#D0D0D0" d="M73.586 17.602c5.718 0 10.563.688 14.534 2.061a39.025 39.025 0 0 1 11.019 5.803l-8.28 8.948a26.099 26.099 0 0 0-7.743-4.122c-2.78-.94-5.757-1.41-8.934-1.41-3.812 0-7.326.922-10.543 2.766-3.177 1.844-5.738 4.808-7.684 8.894-1.906 4.049-2.859 9.4-2.859 16.052 0 6.544.914 11.84 2.74 15.89 1.867 4.048 4.388 7.013 7.565 8.893 3.216 1.844 6.85 2.766 10.9 2.766 4.288 0 7.843-.687 10.662-2.061 2.82-1.374 5.36-2.874 7.624-4.501l7.684 8.84c-2.9 2.602-6.532 4.826-10.9 6.67-4.329 1.843-9.59 2.765-15.785 2.765-7.187 0-13.6-1.5-19.239-4.5-5.639-3.001-10.066-7.412-13.283-13.233-3.216-5.82-4.824-12.997-4.824-21.53 0-8.387 1.648-15.473 4.944-21.257 3.335-5.821 7.822-10.232 13.46-13.232 5.68-3.001 11.993-4.502 18.942-4.502z"/><path fill="#EEE" stroke="#EEE" d="M52.09 23.661c6.453-3.634 10.012-4 18.995-6.059 3.82 5.796 4.936 8.076 6.049 12.117-9.929-.758-13.89.639-19.842 7.711-1.157-5.51-1.703-8.581-5.203-13.769z"/></svg>